<?xml version="1.0" standalone="no"?>
<!DOCTYPE svg PUBLIC "-//W3C//DTD SVG 1.1//EN" "http://www.w3.org/Graphics/SVG/1.1/DTD/svg11.dtd" >
<svg xmlns="http://www.w3.org/2000/svg">
<metadata></metadata>
<defs>
<font id="introregular" horiz-adv-x="1458" >
<font-face units-per-em="2048" ascent="1536" descent="-512" />
<missing-glyph horiz-adv-x="563" />
<glyph horiz-adv-x="0" />
<glyph horiz-adv-x="682" />
<glyph unicode=" "  horiz-adv-x="563" />
<glyph unicode="&#x09;" horiz-adv-x="563" />
<glyph unicode="&#xa0;" horiz-adv-x="563" />
<glyph unicode="!" horiz-adv-x="722" d="M158 1464h409l-22 -1026h-357zM166 197q0 84 57 137q57 51 144 51q86 0 143 -51q57 -53 57 -137t-57 -136q-57 -51 -143 -51q-87 0 -144 51t-57 136z" />
<glyph unicode="&#x26;" horiz-adv-x="1331" d="M137 578q43 143 168 233q-166 182 -63 410q111 238 430 237q201 0 319 -94q133 -102 123 -291h-323q0 82 -119 82q-55 0 -88 -35q-31 -31 -31 -73q0 -45 31 -74q35 -35 92 -35h61v-299h-65q-86 0 -137 -55q-47 -49 -48 -121q0 -74 48 -123q51 -55 137 -55q82 0 133 49 q53 49 53 133v477h447v-317h-127v-160q0 -236 -136 -365q-133 -127 -370 -127q-209 0 -353 97q-129 86 -178 229q-47 137 -4 277z" />
<glyph unicode="," horiz-adv-x="581" d="M78 160q0 84 59 139q57 51 142 51q88 0 145 -51q59 -55 59 -139q0 -25 -14 -76l-90 -266h-207l51 162q-145 35 -145 180z" />
<glyph unicode="." horiz-adv-x="581" d="M82 174q0 84 59 139q57 51 146 52q84 0 141 -52q59 -55 59 -139q0 -82 -59 -135q-57 -51 -141 -51q-89 0 -146 51q-59 51 -59 135z" />
<glyph unicode="0" horiz-adv-x="1392" d="M158 465v502q0 227 157 364q150 129 377 129q231 0 381 -129q158 -137 158 -364v-502q0 -227 -158 -365q-150 -129 -381 -129q-227 0 -377 129q-158 137 -157 365zM506 473q0 -84 53 -131q51 -45 133 -45q84 0 137 45q55 47 56 131v488q0 82 -56 129q-53 43 -137 43 q-82 0 -133 -43q-53 -47 -53 -129v-488z" />
<glyph unicode="1" horiz-adv-x="876" d="M45 0v299h213v838h-195v297h551v-1135h217v-299h-786z" />
<glyph unicode="2" horiz-adv-x="1122" d="M51 0v55l539 789q68 90 67 178q0 106 -120 106q-141 0 -142 -139h-311q-2 221 133 348q123 115 326 119q303 8 424 -235q117 -240 -45 -492l-289 -401h426v-328h-1008z" />
<glyph unicode="3" horiz-adv-x="1167" d="M84 438h322q4 -141 161 -141q74 0 117 49q39 47 41 123q-2 137 -123 176q-72 23 -240 17v49l191 397h-414v326h912v-54l-265 -483q293 -74 293 -426q2 -199 -127 -342q-141 -158 -377 -158q-145 0 -256 62q-236 131 -235 405z" />
<glyph unicode="4" horiz-adv-x="1179" d="M43 272v160l571 1002h394v-863h122v-299h-122v-272h-340v272h-625zM453 571h229v215l27 220h-4z" />
<glyph unicode="5" horiz-adv-x="1183" d="M109 438h315q4 -143 160 -143q160 0 164 176q-6 119 -130 154q-61 18 -485 10v799h893v-312h-590v-178q657 41 660 -473q2 -199 -127 -342q-141 -158 -377 -158q-207 0 -340 125q-135 127 -143 342z" />
<glyph unicode="6" horiz-adv-x="1263" d="M82 471q0 166 76 281l413 694h408l-303 -516q227 16 366 -109q137 -127 138 -350q0 -242 -160 -373q-145 -121 -387 -121q-244 0 -391 121q-160 131 -160 373zM449 471q0 -80 51 -131t133 -51q84 0 133 51q45 51 45 131q0 78 -43 127q-49 53 -135 53q-88 0 -137 -53 q-47 -51 -47 -127z" />
<glyph unicode="7" horiz-adv-x="1099" d="M43 1106v328h1047v-56l-580 -1378h-377l473 1106h-563z" />
<glyph unicode="8" horiz-adv-x="1239" d="M111 582q43 145 170 235q-168 182 -66 406q109 236 428 235q317 0 426 -237q102 -223 -63 -406q122 -90 165 -235q43 -139 -4 -277q-47 -145 -176 -231q-141 -96 -348 -97q-209 0 -352 97q-129 88 -176 233q-47 137 -4 277zM459 463q0 -72 45 -123q51 -55 139 -55t139 55 q45 51 45 123t-45 123q-51 55 -139 55t-139 -55q-45 -51 -45 -123zM508 1055q0 -47 35 -78q37 -37 100 -37q61 0 98 37q33 31 33 78t-33 80q-37 35 -98 34q-63 0 -100 -34q-35 -33 -35 -80z" />
<glyph unicode="9" horiz-adv-x="1247" d="M72 963q0 244 153 372q143 119 391 119t394 -119q158 -129 157 -372q0 -172 -75 -283l-418 -694h-408l305 518q-223 -16 -362 119q-137 131 -137 340zM436 963q0 -80 49 -129q51 -51 131 -52q180 0 181 181q0 78 -47 127q-51 51 -134 51q-80 0 -131 -51q-49 -51 -49 -127 z" />
<glyph unicode=":" horiz-adv-x="634" d="M104 174q0 84 60 139q57 51 145 52q84 0 142 -52q59 -55 59 -139q0 -82 -59 -135q-57 -51 -142 -51q-88 0 -145 51q-59 51 -60 135zM104 838q0 84 60 139q57 51 145 51q84 0 142 -51q59 -55 59 -139q0 -82 -59 -136q-57 -51 -142 -51q-88 0 -145 51q-59 51 -60 136z" />
<glyph unicode=";" horiz-adv-x="612" d="M90 172q0 84 60 139q57 51 141 51q88 0 145 -51q59 -55 60 -139q-1 -25 -15 -76l-90 -266h-207l52 162q-145 35 -146 180zM90 838q0 84 60 139q57 51 145 51q84 0 141 -51q59 -55 60 -139q0 -82 -60 -136q-57 -51 -141 -51q-88 0 -145 51q-59 51 -60 136z" />
<glyph unicode="?" horiz-adv-x="1126" d="M102 1020q-4 223 134 346q123 115 325 119q217 6 352 -123q129 -121 129 -307q0 -156 -147 -330q-145 -168 -139 -287h-363q-18 178 129 338q162 174 168 271q4 53 -43 86q-41 29 -96 28q-139 -4 -139 -141h-310zM373 197q0 84 59 137q57 51 141 51q86 0 144 -51 q59 -53 59 -137q0 -82 -59 -136q-57 -51 -144 -51q-84 0 -141 51q-59 53 -59 136z" />
<glyph unicode="@" horiz-adv-x="1765" d="M74 635q0 336 235 571q238 238 572 238q336 0 571 -238q238 -236 238 -571q0 -348 -205 -526q-193 8 -342 167q-150 162 -146 353q2 49 -32 86q-37 37 -84 37t-84 -35q-37 -37 -35 -86q0 -45 35 -80q37 -37 84 -37q45 0 86 41q18 -203 194 -356q-127 -80 -280 -80 q-211 0 -363 151q-156 152 -156 365t152 366q152 152 367 152t368 -152q152 -154 152 -366v-297l6 -27q96 150 96 324q0 256 -182 440q-184 182 -440 182t-439 -182q-182 -184 -182 -440q0 -258 182 -438q182 -182 439 -183q184 0 344 105q119 -66 207 -74 q-207 -221 -551 -221q-340 0 -574 237q-233 236 -233 574z" />
<glyph unicode="A" d="M2 0v53l645 1399h158l647 -1399v-53h-358l-84 180h-566l-84 -180h-358zM563 494h328l-166 376z" />
<glyph unicode="B" horiz-adv-x="1404" d="M182 0v1434h613q186 0 315 -127q131 -129 131 -314q0 -156 -113 -248q172 -88 172 -292q-2 -197 -114 -320q-121 -133 -332 -133h-672zM537 326h292q53 0 82 39q29 33 29 84q-2 49 -29 81q-31 39 -84 39h-290v-243zM537 874h231q51 0 82 37q27 33 27 80q0 115 -111 115 h-229v-232z" />
<glyph unicode="C" horiz-adv-x="1609" d="M96 717q3 346 232 549q207 184 503 184q246 0 429 -129q207 -147 245 -416h-360q-74 211 -314 211q-160 0 -258 -110q-98 -111 -98 -289q0 -164 96 -277q102 -119 260 -121q260 0 320 232h360q-37 -285 -245 -434q-180 -131 -435 -131h-6q-293 0 -497 182 q-229 203 -232 549z" />
<glyph unicode="D" horiz-adv-x="1519" d="M182 0v1434h541q332 -2 526 -226q174 -201 174 -491q0 -291 -174 -492q-195 -223 -526 -225h-541zM549 334h174q162 0 256 119q86 109 86 264q0 156 -86 264q-94 119 -256 119h-174v-766z" />
<glyph unicode="E" horiz-adv-x="1228" d="M182 0v1434h895v-328h-530v-203h487v-325h-487v-252h549v-326h-914z" />
<glyph unicode="F" horiz-adv-x="1175" d="M182 0v1434h893v-328h-520v-313h461v-328h-461v-465h-373z" />
<glyph unicode="G" horiz-adv-x="1617" d="M94 717q3 346 232 551q207 184 503 184q238 -2 412 -121q199 -135 248 -387h-361q-84 172 -299 172q-168 0 -264 -117q-92 -111 -92 -282q0 -178 96 -285q97 -108 257 -108h3q223 0 308 176h-306v317h678q3 -53 3 -102q0 -192 -44 -318q-72 -211 -258 -319 q-164 -94 -381 -94q-297 0 -503 182q-229 205 -232 551z" />
<glyph unicode="H" horiz-adv-x="1560" d="M184 0v1434h375v-521h442v521h375v-1434h-375v575h-442v-575h-375z" />
<glyph unicode="I" horiz-adv-x="847" d="M63 0v322h183v792h-168v320h698v-320h-168v-792h183v-322h-728z" />
<glyph unicode="J" horiz-adv-x="1355" d="M94 477v187h346v-181q0 -82 56 -129q51 -43 135 -43q178 0 178 172v625h-209v326h584v-957q0 -227 -166 -364q-156 -129 -387 -129q-229 0 -379 129q-158 137 -158 364z" />
<glyph unicode="K" horiz-adv-x="1449" d="M184 0v1434h373v-543h27q242 0 311 170q37 92 37 373h377q0 -295 -31 -414q-55 -211 -246 -332l389 -631v-57h-407l-316 555q-49 -8 -141 -8v-547h-373z" />
<glyph unicode="L" horiz-adv-x="1138" d="M180 0v1434h369v-1104h520v-330h-889z" />
<glyph unicode="M" horiz-adv-x="1761" d="M180 0v1438h135l562 -623l571 623h131v-1438h-375v639l-305 -320h-41l-303 320v-639h-375z" />
<glyph unicode="N" horiz-adv-x="1597" d="M182 0v1440h133l725 -709v703h375v-1436h-131l-723 707v-705h-379z" />
<glyph unicode="O" horiz-adv-x="1658" d="M94 715q0 350 230 557q207 186 505 186q299 0 506 -186q229 -207 230 -557q-1 -352 -230 -559q-207 -186 -506 -187q-299 0 -505 187q-229 207 -230 559zM471 715q0 -184 113 -293q100 -96 247 -96q145 0 246 96q113 109 113 293q0 182 -113 291q-100 96 -246 96 q-147 0 -247 -96q-113 -109 -113 -291z" />
<glyph unicode="P" horiz-adv-x="1421" d="M182 0v1434h631q244 0 385 -168q129 -150 129 -367t-129 -367q-140 -165 -382 -165h-3h-264v-367h-367zM549 696h262q72 0 115 64q39 57 41 141q0 82 -37 139q-43 66 -119 66h-262v-410z" />
<glyph unicode="Q" horiz-adv-x="1667" d="M96 715q0 350 230 557q207 186 505 186q299 0 506 -186q229 -207 230 -557q0 -244 -115 -424l147 -244v-47h-372l-35 66q-181 -97 -364 -97q-173 0 -347 86q-385 190 -385 660zM473 715q0 -184 113 -293q100 -96 245 -96t246 96q113 109 113 293q0 182 -113 291 q-100 96 -246 96q-145 0 -245 -96q-113 -109 -113 -291z" />
<glyph unicode="R" horiz-adv-x="1431" d="M180 0v1434h629q201 0 336 -111q123 -100 164 -260q17 -67 17 -133q0 -88 -30 -174q-51 -158 -184 -248l281 -455v-53h-410l-246 422h-190v-422h-367zM547 748h262q70 0 113 55q39 51 41 123q0 74 -37 123q-43 57 -117 57h-262v-358z" />
<glyph unicode="S" horiz-adv-x="1327" d="M84 438h354q0 -63 72 -102q61 -35 154 -37h11q83 0 142 29q70 35 70 94q0 117 -262 131q-250 18 -375 113q-141 106 -146 327v10q0 212 168 338q154 117 379 117q223 0 379 -117q168 -126 168 -338v-10h-348q0 68 -59 105q-49 32 -121 32h-13q-80 -2 -137 -34 q-61 -37 -67 -99v-8q0 -68 63 -100q47 -25 164 -37q276 -31 389 -92q174 -100 174 -340q0 -213 -182 -340q-161 -113 -391 -113h-8q-238 0 -400 117q-180 131 -178 354z" />
<glyph unicode="T" horiz-adv-x="1150" d="M41 1106v328h1065v-328h-350v-1106h-363v1106h-352z" />
<glyph unicode="U" horiz-adv-x="1478" d="M168 477v957h350v-951q0 -82 70 -131q61 -43 149 -43q89 0 150 43q68 49 67 131v951h351v-957q0 -227 -172 -366q-162 -131 -396 -131q-231 0 -395 131q-174 139 -174 366z" />
<glyph unicode="V" horiz-adv-x="1437" d="M29 1378v56h352l336 -811h10l328 811h352v-56l-608 -1394h-156z" />
<glyph unicode="W" horiz-adv-x="1943" d="M31 1378v56h370l185 -541l63 -244h6l240 762h156l243 -762h6l64 244l182 541h365v-56l-498 -1392h-211l-229 690h-6l-230 -690h-202z" />
<glyph unicode="X" horiz-adv-x="1378" d="M25 0v55l462 705l-413 618v56h375l233 -373h10l240 373h368v-56l-413 -618l465 -705v-55h-385l-273 451h-12l-274 -451h-383z" />
<glyph unicode="Y" horiz-adv-x="1361" d="M18 1378v56h396l260 -478h14l260 478h398v-56l-484 -776v-602h-362v602z" />
<glyph unicode="Z" horiz-adv-x="1251" d="M47 0v55l586 1051h-533v328h1086v-56l-588 -1050h594v-328h-1145z" />
<glyph unicode="`" horiz-adv-x="714" d="M125 1399v31l311 104l156 -342v-33h-256z" />
<glyph unicode="a" d="M2 0v53l645 1399h158l647 -1399v-53h-358l-84 180h-566l-84 -180h-358zM565 496h324l-164 376z" />
<glyph unicode="b" horiz-adv-x="1404" d="M182 0v1434h613q186 0 315 -127q131 -129 131 -314q0 -156 -113 -248q172 -88 172 -292q-2 -197 -114 -320q-121 -133 -332 -133h-672zM537 326h292q53 0 82 39q29 33 29 84q-2 49 -29 81q-31 39 -84 39h-290v-243zM537 870h231q51 0 82 37q27 33 27 82q0 47 -27 80 q-33 37 -84 37h-229v-236z" />
<glyph unicode="c" horiz-adv-x="1609" d="M96 717q3 346 232 549q207 184 503 184q246 0 429 -129q207 -147 245 -416h-360q-74 211 -314 211q-160 0 -258 -110q-98 -111 -98 -289q0 -164 96 -277q102 -119 260 -121q260 0 320 232h360q-37 -285 -245 -434q-180 -131 -435 -131h-6q-293 0 -497 182 q-229 203 -232 549z" />
<glyph unicode="d" horiz-adv-x="1519" d="M182 0v1434h541q332 -2 526 -226q174 -201 174 -491q0 -291 -174 -492q-195 -223 -526 -225h-541zM549 334h174q162 0 256 119q86 109 86 264q0 156 -86 264q-94 119 -256 119h-174v-766z" />
<glyph unicode="e" horiz-adv-x="1228" d="M182 0v1434h895v-328h-530v-203h487v-325h-487v-252h549v-326h-914z" />
<glyph unicode="f" horiz-adv-x="1175" d="M182 0v1434h893v-328h-520v-313h461v-328h-461v-465h-373z" />
<glyph unicode="g" horiz-adv-x="1617" d="M94 717q3 346 232 551q207 184 503 184q238 -2 412 -121q199 -135 248 -387h-361q-84 172 -299 172q-168 0 -264 -117q-92 -111 -92 -282q0 -178 96 -285q97 -108 257 -108h3q223 0 308 176h-306v317h678q3 -53 3 -102q0 -192 -44 -318q-72 -211 -258 -319 q-164 -94 -381 -94q-297 0 -503 182q-229 205 -232 551z" />
<glyph unicode="h" horiz-adv-x="1560" d="M184 0v1434h375v-521h442v521h375v-1434h-375v575h-442v-575h-375z" />
<glyph unicode="i" horiz-adv-x="847" d="M63 0v322h183v792h-168v320h698v-320h-168v-792h183v-322h-728z" />
<glyph unicode="j" horiz-adv-x="1355" d="M94 477v187h346v-181q0 -82 56 -129q51 -43 135 -43q178 0 178 172v625h-209v326h584v-957q0 -227 -166 -364q-156 -129 -387 -129q-229 0 -379 129q-158 137 -158 364z" />
<glyph unicode="k" horiz-adv-x="1449" d="M184 0v1434h373v-543h27q242 0 311 170q37 92 37 373h377q0 -295 -31 -414q-55 -211 -246 -332l389 -631v-57h-407l-316 555q-49 -8 -141 -8v-547h-373z" />
<glyph unicode="l" horiz-adv-x="1138" d="M180 0v1434h369v-1104h520v-330h-889z" />
<glyph unicode="m" horiz-adv-x="1761" d="M180 0v1438h135l562 -623l571 623h131v-1438h-375v639l-305 -320h-41l-303 320v-639h-375z" />
<glyph unicode="n" horiz-adv-x="1597" d="M182 0v1440h133l725 -709v703h375v-1436h-131l-723 707v-705h-379z" />
<glyph unicode="o" horiz-adv-x="1658" d="M94 715q0 350 230 557q207 186 505 186q299 0 506 -186q229 -207 230 -557q-1 -352 -230 -559q-207 -186 -506 -187q-299 0 -505 187q-229 207 -230 559zM471 715q0 -184 113 -293q100 -96 247 -96q145 0 246 96q113 109 113 293q0 182 -113 291q-100 96 -246 96 q-147 0 -247 -96q-113 -109 -113 -291z" />
<glyph unicode="p" horiz-adv-x="1421" d="M182 0v1434h631q244 0 385 -168q129 -150 129 -367t-129 -367q-140 -165 -382 -165h-3h-264v-367h-367zM549 696h262q72 0 115 64q39 57 41 141q0 82 -37 139q-43 66 -119 66h-262v-410z" />
<glyph unicode="q" horiz-adv-x="1667" d="M96 715q0 350 230 557q207 186 505 186q299 0 506 -186q229 -207 230 -557q0 -244 -115 -424l147 -244v-47h-372l-35 66q-181 -97 -364 -97q-173 0 -347 86q-385 190 -385 660zM473 715q0 -184 113 -293q100 -96 245 -96t246 96q113 109 113 293q0 182 -113 291 q-100 96 -246 96q-145 0 -245 -96q-113 -109 -113 -291z" />
<glyph unicode="r" horiz-adv-x="1431" d="M180 0v1434h629q201 0 336 -111q123 -100 164 -260q17 -67 17 -133q0 -88 -30 -174q-51 -158 -184 -248l281 -455v-53h-410l-246 422h-190v-422h-367zM547 752h262q70 0 113 55q39 49 41 121q0 72 -37 123q-43 55 -117 55h-262v-354z" />
<glyph unicode="s" horiz-adv-x="1327" d="M84 438h354q0 -63 72 -102q61 -33 154 -35q90 0 153 33q70 35 70 94q0 68 -76 96q-55 20 -186 29q-250 18 -375 113q-141 106 -146 327v10q0 212 168 338q154 117 379 117q223 0 379 -117q168 -126 168 -338v-10h-348q0 68 -59 105q-49 32 -121 32h-13q-80 -2 -137 -34 q-61 -37 -67 -99v-8q0 -68 63 -100q47 -25 164 -37q281 -31 389 -90q174 -96 174 -336q0 -213 -182 -340q-164 -117 -399 -117q-238 0 -400 117q-180 129 -178 352z" />
<glyph unicode="t" horiz-adv-x="1150" d="M41 1106v328h1065v-328h-350v-1106h-363v1106h-352z" />
<glyph unicode="u" horiz-adv-x="1478" d="M168 477v957h350v-951q0 -82 70 -131q61 -43 149 -43q89 0 150 43q68 49 67 131v951h355v-957q0 -227 -174 -366q-164 -131 -398 -131q-231 0 -395 131q-174 139 -174 366z" />
<glyph unicode="v" horiz-adv-x="1437" d="M29 1378v56h352l336 -813h10l328 813h352v-56l-608 -1394h-156z" />
<glyph unicode="w" horiz-adv-x="1943" d="M31 1378v56h370l185 -541l63 -244h6l240 762h156l243 -762h6l64 244l182 541h365v-56l-498 -1392h-211l-229 690h-6l-230 -690h-202z" />
<glyph unicode="x" horiz-adv-x="1378" d="M25 0v55l462 705l-413 618v56h381l227 -373h10l230 373h378v-56l-413 -618l465 -705v-55h-396l-262 451h-12l-262 -451h-395z" />
<glyph unicode="y" horiz-adv-x="1361" d="M18 1378v56h396l260 -478h14l260 478h398v-56l-484 -776v-602h-362v602z" />
<glyph unicode="z" horiz-adv-x="1251" d="M47 0v55l586 1051h-533v328h1086v-56l-588 -1050h594v-328h-1145z" />
<glyph unicode="&#xa1;" horiz-adv-x="722" d="M158 -403l22 1026h357l30 -1026h-409zM158 864q0 84 57 135t143 52q87 -1 144 -52t57 -135t-57 -137q-57 -51 -144 -51q-86 0 -143 51q-57 53 -57 137z" />
<glyph unicode="&#xa8;" horiz-adv-x="1232" d="M133 1348q0 86 60 137q57 51 143 51q88 0 145 -51q59 -51 60 -137q0 -82 -60 -136q-59 -51 -145 -51t-143 51q-59 53 -60 136zM676 1348q0 86 59 137q57 51 144 51q88 0 145 -51t57 -137q0 -84 -57 -136q-57 -51 -145 -51q-87 0 -144 51q-59 53 -59 136z" />
<glyph unicode="&#xb4;" horiz-adv-x="688" d="M119 1159v33l155 342l312 -104v-31l-211 -240h-256z" />
<glyph unicode="&#xb8;" horiz-adv-x="710" d="M119 -449l16 191q37 -29 96 -27q61 2 74 41q20 72 -98 72l53 203l229 -8l-30 -136q94 -14 127 -90q33 -72 -2 -155q-51 -129 -207 -148q-139 -16 -258 57z" />
<glyph unicode="&#xbf;" horiz-adv-x="1112" d="M78 20q0 156 149 330q143 168 138 287h362q18 -178 -129 -338q-162 -174 -168 -270q-2 -53 43 -86q41 -29 96 -29q139 4 140 141h309q4 -223 -131 -346q-125 -115 -328 -119q-217 -6 -352 123q-129 121 -129 307zM344 879q0 82 59 135q57 51 144 51q84 0 141 -51 q59 -53 60 -135q0 -84 -60 -138q-55 -51 -141 -51t-144 51q-59 53 -59 138z" />
<glyph unicode="&#xc0;" d="M2 0v53l645 1399h158l647 -1399v-53h-358l-84 180h-566l-84 -180h-358zM408 1782v30l311 105l155 -342v-33h-256zM563 494h328l-166 376z" />
<glyph unicode="&#xc1;" d="M2 0v53l645 1399h158l647 -1399v-53h-358l-84 180h-566l-84 -180h-358zM563 494h328l-166 376zM571 1538v33l156 342l311 -105v-30l-211 -240h-256z" />
<glyph unicode="&#xc2;" d="M2 0v53l645 1399h158l647 -1399v-53h-358l-84 180h-566l-84 -180h-358zM319 1528v33l218 292h372l219 -292v-33h-272l-133 155l-125 -155h-279zM563 494h328l-166 376z" />
<glyph unicode="&#xc3;" d="M2 0v53l645 1399h158l647 -1399v-53h-358l-84 180h-566l-84 -180h-358zM293 1628q55 166 164 223q111 59 264 -2q84 -33 113 -34q66 -6 86 59l184 -80q-33 -152 -146 -219q-115 -70 -251 -14q-109 43 -125 47q-86 16 -113 -54q-76 29 -176 74zM563 494h328l-166 376z" />
<glyph unicode="&#xc4;" d="M2 0v53l645 1399h158l647 -1399v-53h-358l-84 180h-566l-84 -180h-358zM254 1700q0 86 59 137q57 51 144 51q88 0 145 -51q59 -51 60 -137q0 -82 -60 -135q-59 -51 -145 -52q-87 1 -144 52q-59 53 -59 135zM563 494h328l-166 376zM797 1700q0 86 59 137q57 51 143 51 q88 0 146 -51q57 -51 57 -137q0 -84 -57 -135t-146 -52q-86 1 -143 52q-59 53 -59 135z" />
<glyph unicode="&#xc5;" d="M2 0v53l612 1329q-162 61 -161 234q0 111 79 180q78 68 195 68q115 0 191 -68q80 -70 79 -180q0 -170 -161 -234l616 -1329v-53h-358l-84 180h-566l-84 -180h-358zM563 494h328l-166 378zM641 1616q0 -76 86 -76q84 0 84 76t-84 76q-86 0 -86 -76z" />
<glyph unicode="&#xc6;" horiz-adv-x="1773" d="M2 0v55l641 1379h979v-326h-467v-207h426v-326h-426v-249h485v-326h-827v313h-313q-113 -260 -138 -313h-360zM627 645h186l6 465h-2z" />
<glyph unicode="&#xc7;" horiz-adv-x="1609" d="M96 717q2 346 232 549q207 184 503 184q246 0 429 -129q207 -147 245 -416h-360q-74 211 -314 211q-160 0 -258 -110q-98 -111 -98 -289q0 -164 96 -277q102 -119 260 -121q260 0 320 232h360q-33 -254 -198 -401q-147 -131 -367 -158l-20 -92q94 -14 127 -90 q33 -72 -2 -156q-51 -129 -207 -148q-139 -16 -258 58l16 190q37 -29 96 -26q61 2 74 41q20 72 -98 71l39 154q-260 35 -428 213q-186 199 -189 510z" />
<glyph unicode="&#xc8;" horiz-adv-x="1228" d="M182 0v1434h895v-328h-530v-203h487v-325h-487v-252h549v-326h-914zM340 1782v30l311 105l156 -342v-33h-256z" />
<glyph unicode="&#xc9;" horiz-adv-x="1228" d="M182 0v1434h895v-328h-530v-203h487v-325h-487v-252h549v-326h-914zM483 1538v33l156 342l311 -105v-30l-211 -240h-256z" />
<glyph unicode="&#xca;" horiz-adv-x="1228" d="M182 0v1434h895v-328h-530v-203h487v-325h-487v-252h549v-326h-914zM223 1536v33l217 293h373l219 -293v-33h-272l-133 156l-125 -156h-279z" />
<glyph unicode="&#xcb;" horiz-adv-x="1228" d="M182 0v1434h895v-328h-530v-203h487v-325h-487v-252h549v-326h-914zM182 1706q0 82 58 135q57 49 141 49t139 -49q59 -53 60 -135q0 -80 -60 -131q-55 -49 -139 -49t-141 49q-57 51 -58 131zM711 1706q0 82 57 135q57 49 141 49t140 -49q57 -53 57 -135q0 -80 -57 -131 q-55 -49 -140 -49q-84 0 -141 49q-57 51 -57 131z" />
<glyph unicode="&#xcc;" horiz-adv-x="847" d="M63 0v322h183v792h-168v320h698v-320h-168v-792h183v-322h-728zM104 1778v30l312 105l155 -342v-33h-256z" />
<glyph unicode="&#xcd;" horiz-adv-x="847" d="M63 0v322h183v792h-168v320h698v-320h-168v-792h183v-322h-728zM279 1534v33l155 342l311 -105v-30l-210 -240h-256z" />
<glyph unicode="&#xce;" horiz-adv-x="847" d="M20 1538v33l218 293h372l219 -293v-33h-272l-133 156l-125 -156h-279zM63 0v322h183v792h-168v320h698v-320h-168v-792h183v-322h-728z" />
<glyph unicode="&#xcf;" horiz-adv-x="847" d="M-45 1722q0 86 59 138q57 51 144 51q88 0 145 -51q59 -51 59 -138q0 -82 -59 -135q-59 -51 -145 -51q-87 0 -144 51q-59 53 -59 135zM63 0v322h183v792h-168v320h698v-320h-168v-792h183v-322h-728zM498 1722q0 86 59 138q57 51 143 51q88 0 146 -51q57 -51 57 -138 q0 -84 -57 -135t-146 -51q-86 0 -143 51q-59 53 -59 135z" />
<glyph unicode="&#xd0;" horiz-adv-x="1519" d="M10 553v321h172v560h541q332 -2 526 -226q174 -201 174 -491q0 -291 -174 -492q-195 -223 -526 -225h-541v553h-172zM549 334h174q162 0 256 119q86 109 86 264q0 156 -86 264q-94 119 -256 119h-174v-226h188v-321h-188v-219z" />
<glyph unicode="&#xd1;" horiz-adv-x="1597" d="M182 0v1440h133l725 -709v703h375v-1436h-131l-723 707v-705h-379zM362 1628q55 166 164 223q111 59 265 -2q84 -33 112 -34q66 -6 86 59l185 -80q-33 -152 -146 -219q-115 -70 -252 -14q-109 43 -125 47q-86 16 -112 -54q-77 29 -177 74z" />
<glyph unicode="&#xd2;" horiz-adv-x="1658" d="M94 715q0 350 230 557q207 186 505 186q299 0 506 -186q229 -207 230 -557q-1 -352 -230 -559q-207 -186 -506 -187q-299 0 -505 187q-229 207 -230 559zM471 715q0 -184 113 -293q100 -96 247 -96q145 0 246 96q113 109 113 293q0 182 -113 291q-100 96 -246 96 q-147 0 -247 -96q-113 -109 -113 -291zM508 1796v31l311 104l156 -342v-33h-256z" />
<glyph unicode="&#xd3;" horiz-adv-x="1658" d="M94 715q0 350 230 557q207 186 505 186q299 0 506 -186q229 -207 230 -557q-1 -352 -230 -559q-207 -186 -506 -187q-299 0 -505 187q-229 207 -230 559zM471 715q0 -184 113 -293q100 -96 247 -96q145 0 246 96q113 109 113 293q0 182 -113 291q-100 96 -246 96 q-147 0 -247 -96q-113 -109 -113 -291zM653 1569v33l156 342l311 -105v-31l-211 -239h-256z" />
<glyph unicode="&#xd4;" horiz-adv-x="1658" d="M94 715q0 350 230 557q207 186 505 186q299 0 506 -186q229 -207 230 -557q-1 -352 -230 -559q-207 -186 -506 -187q-299 0 -505 187q-229 207 -230 559zM424 1563v32l217 293h373l219 -293v-32h-272l-134 155l-125 -155h-278zM471 715q0 -184 113 -293q100 -96 247 -96 q145 0 246 96q113 109 113 293q0 182 -113 291q-100 96 -246 96q-147 0 -247 -96q-113 -109 -113 -291z" />
<glyph unicode="&#xd5;" horiz-adv-x="1658" d="M94 715q0 350 230 557q207 186 505 186q299 0 506 -186q229 -207 230 -557q-1 -352 -230 -559q-207 -186 -506 -187q-299 0 -505 187q-229 207 -230 559zM410 1653q55 166 163 223q111 59 265 -2q84 -33 112 -35q66 -6 86 59l185 -79q-33 -152 -146 -220 q-115 -70 -252 -14q-109 43 -125 47q-86 16 -112 -53q-76 29 -176 74zM471 715q0 -184 113 -293q100 -96 247 -96q145 0 246 96q113 109 113 293q0 182 -113 291q-100 96 -246 96q-147 0 -247 -96q-113 -109 -113 -291z" />
<glyph unicode="&#xd6;" horiz-adv-x="1658" d="M94 715q0 350 230 557q207 186 505 186q299 0 506 -186q229 -207 230 -557q-1 -352 -230 -559q-207 -186 -506 -187q-299 0 -505 187q-229 207 -230 559zM354 1722q0 86 60 138q57 51 143 51q88 0 145 -51q59 -51 60 -138q0 -82 -60 -135q-59 -51 -145 -51t-143 51 q-59 53 -60 135zM471 715q0 -184 113 -293q100 -96 247 -96q145 0 246 96q113 109 113 293q0 182 -113 291q-100 96 -246 96q-147 0 -247 -96q-113 -109 -113 -291zM897 1722q0 86 59 138q57 51 144 51q88 0 145 -51t58 -138q0 -84 -58 -135q-57 -51 -145 -51q-87 0 -144 51 q-59 53 -59 135z" />
<glyph unicode="&#xd8;" horiz-adv-x="1656" d="M94 721q0 432 332 635q303 184 651 71l84 138h348v-39l-159 -262q213 -207 213 -543q0 -422 -322 -627q-293 -186 -637 -84l-86 -141h-350v41l156 254q-229 205 -230 557zM473 721q0 -182 113 -291q100 -96 245 -96q143 0 244 96q113 109 113 291q0 184 -113 291 q-100 98 -244 98q-145 0 -245 -98q-113 -106 -113 -291z" />
<glyph unicode="&#xd9;" horiz-adv-x="1478" d="M168 477v957h350v-951q0 -82 70 -131q61 -43 149 -43q89 0 150 43q68 49 67 131v951h351v-957q0 -227 -172 -366q-162 -131 -396 -131q-231 0 -395 131q-174 139 -174 366zM418 1782v30l311 105l156 -342v-33h-256z" />
<glyph unicode="&#xda;" horiz-adv-x="1478" d="M168 477v957h350v-951q0 -82 70 -131q61 -43 149 -43q89 0 150 43q68 49 67 131v951h351v-957q0 -227 -172 -366q-162 -131 -396 -131q-231 0 -395 131q-174 139 -174 366zM571 1542v33l156 342l311 -105v-30l-211 -240h-256z" />
<glyph unicode="&#xdb;" horiz-adv-x="1478" d="M168 477v957h350v-951q0 -82 70 -131q61 -43 149 -43q89 0 150 43q68 49 67 131v951h351v-957q0 -227 -172 -366q-162 -131 -396 -131q-231 0 -395 131q-174 139 -174 366zM334 1536v33l217 293h373l219 -293v-33h-273l-133 156l-125 -156h-278z" />
<glyph unicode="&#xdc;" horiz-adv-x="1478" d="M168 477v957h350v-951q0 -82 70 -131q61 -43 149 -43q89 0 150 43q68 49 67 131v951h351v-957q0 -227 -172 -366q-162 -131 -396 -131q-231 0 -395 131q-174 139 -174 366zM274 1714q0 86 60 137q57 51 143 52q88 0 146 -52q59 -51 59 -137q0 -82 -59 -135 q-59 -51 -146 -51q-86 0 -143 51q-59 53 -60 135zM817 1714q0 86 60 137q57 51 143 52q88 0 145 -52q57 -51 58 -137q0 -84 -58 -135q-57 -51 -145 -51q-86 0 -143 51q-59 53 -60 135z" />
<glyph unicode="&#xdd;" horiz-adv-x="1361" d="M18 1378v56h396l260 -478h14l260 478h398v-56l-484 -776v-602h-362v602zM504 1534v33l155 342l312 -105v-30l-211 -240h-256z" />
<glyph unicode="&#xde;" horiz-adv-x="1421" d="M182 0v1434h367v-183h264q244 0 385 -168q129 -150 129 -366q0 -217 -129 -367q-141 -166 -385 -166h-264v-184h-367zM549 514h262q72 0 115 64q39 57 41 141q0 82 -37 139q-43 66 -119 66h-262v-410z" />
<glyph unicode="&#xe0;" d="M2 0v53l645 1399h158l647 -1399v-53h-358l-84 180h-566l-84 -180h-358zM401 1778v30l312 105l155 -342v-33h-256zM565 496h324l-164 376z" />
<glyph unicode="&#xe1;" d="M2 0v53l645 1399h158l647 -1399v-53h-358l-84 180h-566l-84 -180h-358zM565 496h324l-164 376zM594 1542v33l156 342l311 -105v-30l-211 -240h-256z" />
<glyph unicode="&#xe2;" d="M2 0v53l645 1399h158l647 -1399v-53h-358l-84 180h-566l-84 -180h-358zM324 1522v32l217 293h372l220 -293v-32h-273l-133 155l-125 -155h-278zM565 496h324l-164 376z" />
<glyph unicode="&#xe3;" d="M2 0v53l645 1399h158l647 -1399v-53h-358l-84 180h-566l-84 -180h-358zM324 1608q55 166 163 223q111 59 265 -2q84 -33 112 -35q66 -6 86 59l185 -79q-33 -152 -146 -220q-115 -70 -252 -14q-109 43 -125 47q-86 16 -112 -53q-76 29 -176 74zM565 496h324l-164 376z" />
<glyph unicode="&#xe4;" d="M2 0v53l645 1399h158l647 -1399v-53h-358l-84 180h-566l-84 -180h-358zM254 1686q0 86 59 137q57 51 144 51q88 0 145 -51q59 -51 60 -137q0 -82 -60 -136q-59 -51 -145 -51q-87 0 -144 51q-59 53 -59 136zM565 496h324l-164 376zM797 1686q0 86 59 137q57 51 143 51 q88 0 146 -51q57 -51 57 -137q0 -84 -57 -136q-57 -51 -146 -51q-86 0 -143 51q-59 53 -59 136z" />
<glyph unicode="&#xe5;" d="M2 0v53l612 1329q-162 61 -161 234q0 111 79 180q78 68 195 68q115 0 191 -68q80 -70 79 -180q0 -170 -161 -234l616 -1329v-53h-358l-84 180h-566l-84 -180h-358zM563 494h328l-166 378zM641 1616q0 -76 86 -76q84 0 84 76t-84 76q-86 0 -86 -76z" />
<glyph unicode="&#xe6;" horiz-adv-x="1773" d="M2 0v55l641 1379h979v-326h-467v-207h426v-326h-426v-249h485v-326h-827v313h-313q-113 -260 -138 -313h-360zM627 645h186l6 465h-2z" />
<glyph unicode="&#xe7;" horiz-adv-x="1609" d="M96 717q2 346 232 549q207 184 503 184q246 0 429 -129q207 -147 245 -416h-360q-74 211 -314 211q-160 0 -258 -110q-98 -111 -98 -289q0 -164 96 -277q102 -119 260 -121q260 0 320 232h360q-33 -254 -198 -401q-147 -131 -367 -158l-20 -92q94 -14 127 -90 q33 -72 -2 -156q-51 -129 -207 -148q-139 -16 -258 58l16 190q37 -29 96 -26q61 2 74 41q20 72 -98 71l39 154q-260 35 -428 213q-186 199 -189 510z" />
<glyph unicode="&#xe8;" horiz-adv-x="1228" d="M182 0v1434h895v-328h-530v-203h487v-325h-487v-252h549v-326h-914zM342 1772v30l311 105l156 -342v-33h-256z" />
<glyph unicode="&#xe9;" horiz-adv-x="1228" d="M182 0v1434h895v-328h-530v-203h487v-325h-487v-252h549v-326h-914zM465 1528v33l156 342l311 -105v-31l-211 -239h-256z" />
<glyph unicode="&#xea;" horiz-adv-x="1228" d="M182 0v1434h895v-328h-530v-203h487v-325h-487v-252h549v-326h-914zM223 1532v33l217 293h373l219 -293v-33h-272l-133 156l-125 -156h-279z" />
<glyph unicode="&#xeb;" horiz-adv-x="1228" d="M182 0v1434h895v-328h-530v-203h487v-325h-487v-252h549v-326h-914zM190 1696q0 82 56 131q53 47 135 47t137 -47q55 -51 55 -131q0 -78 -55 -127q-55 -47 -137 -47t-135 47q-55 49 -56 127zM700 1696q0 82 56 131q53 47 135 47q84 0 135 -47q55 -49 55 -131 q0 -78 -55 -127q-53 -47 -135 -47t-135 47q-55 49 -56 127z" />
<glyph unicode="&#xec;" horiz-adv-x="847" d="M63 0v322h183v792h-168v320h698v-320h-168v-792h183v-322h-728zM98 1767v31l312 105l155 -342v-33h-256z" />
<glyph unicode="&#xed;" horiz-adv-x="847" d="M63 0v322h183v792h-168v320h698v-320h-168v-792h183v-322h-728zM270 1532v33l156 342l311 -105v-30l-211 -240h-256z" />
<glyph unicode="&#xee;" horiz-adv-x="847" d="M20 1532v33l218 293h372l219 -293v-33h-272l-133 156l-125 -156h-279zM63 0v322h183v792h-168v320h698v-320h-168v-792h183v-322h-728z" />
<glyph unicode="&#xef;" horiz-adv-x="847" d="M-49 1706q0 86 59 137q57 51 144 51q88 0 145 -51q59 -51 59 -137q0 -82 -59 -135q-59 -51 -145 -51q-87 0 -144 51q-59 53 -59 135zM63 0v322h183v792h-168v320h698v-320h-168v-792h183v-322h-728zM494 1706q0 86 59 137q57 51 143 51q88 0 146 -51q57 -51 57 -137 q0 -84 -57 -135t-146 -51q-86 0 -143 51q-59 53 -59 135z" />
<glyph unicode="&#xf0;" horiz-adv-x="1519" d="M10 553v321h172v560h541q332 -2 526 -226q174 -201 174 -491q0 -291 -174 -492q-195 -223 -526 -225h-541v553h-172zM549 334h174q162 0 256 119q86 109 86 264q0 156 -86 264q-94 119 -256 119h-174v-226h188v-321h-188v-219z" />
<glyph unicode="&#xf1;" horiz-adv-x="1597" d="M182 0v1440h133l725 -709v703h375v-1436h-131l-723 707v-705h-379zM393 1624q55 166 164 223q111 59 264 -2q84 -33 113 -35q66 -6 86 60l184 -80q-33 -152 -145 -219q-115 -70 -252 -15q-109 43 -125 48q-86 16 -113 -54q-76 29 -176 74z" />
<glyph unicode="&#xf2;" horiz-adv-x="1658" d="M94 715q0 350 230 557q207 186 505 186q299 0 506 -186q229 -207 230 -557q-1 -352 -230 -559q-207 -186 -506 -187q-299 0 -505 187q-229 207 -230 559zM471 715q0 -184 113 -293q100 -96 247 -96q145 0 246 96q113 109 113 293q0 182 -113 291q-100 96 -246 96 q-147 0 -247 -96q-113 -109 -113 -291zM498 1794v31l311 104l156 -342v-33h-256z" />
<glyph unicode="&#xf3;" horiz-adv-x="1658" d="M94 715q0 350 230 557q207 186 505 186q299 0 506 -186q229 -207 230 -557q-1 -352 -230 -559q-207 -186 -506 -187q-299 0 -505 187q-229 207 -230 559zM471 715q0 -184 113 -293q100 -96 247 -96q145 0 246 96q113 109 113 293q0 182 -113 291q-100 96 -246 96 q-147 0 -247 -96q-113 -109 -113 -291zM674 1550v33l155 342l312 -104v-31l-211 -240h-256z" />
<glyph unicode="&#xf4;" horiz-adv-x="1658" d="M94 715q0 350 230 557q207 186 505 186q299 0 506 -186q229 -207 230 -557q-1 -352 -230 -559q-207 -186 -506 -187q-299 0 -505 187q-229 207 -230 559zM424 1550v33l217 293h373l219 -293v-33h-272l-134 156l-125 -156h-278zM471 715q0 -184 113 -293q100 -96 247 -96 q145 0 246 96q113 109 113 293q0 182 -113 291q-100 96 -246 96q-147 0 -247 -96q-113 -109 -113 -291z" />
<glyph unicode="&#xf5;" horiz-adv-x="1658" d="M94 715q0 350 230 557q207 186 505 186q299 0 506 -186q229 -207 230 -557q-1 -352 -230 -559q-207 -186 -506 -187q-299 0 -505 187q-229 207 -230 559zM424 1632q55 166 164 223q111 59 264 -2q84 -33 113 -34q66 -6 86 59l184 -80q-33 -152 -145 -219 q-115 -70 -252 -14q-109 43 -125 47q-86 16 -113 -53q-76 28 -176 73zM471 715q0 -184 113 -293q100 -96 247 -96q145 0 246 96q113 109 113 293q0 182 -113 291q-100 96 -246 96q-147 0 -247 -96q-113 -109 -113 -291z" />
<glyph unicode="&#xf6;" horiz-adv-x="1658" d="M94 715q0 350 230 557q207 186 505 186q299 0 506 -186q229 -207 230 -557q-1 -352 -230 -559q-207 -186 -506 -187q-299 0 -505 187q-229 207 -230 559zM354 1718q0 86 60 137q57 51 143 52q88 0 145 -52q59 -51 60 -137q0 -82 -60 -135q-59 -51 -145 -51t-143 51 q-59 53 -60 135zM471 715q0 -184 113 -293q100 -96 247 -96q145 0 246 96q113 109 113 293q0 182 -113 291q-100 96 -246 96q-147 0 -247 -96q-113 -109 -113 -291zM897 1718q0 86 59 137q57 51 144 52q88 0 145 -52q57 -51 58 -137q0 -84 -58 -135q-57 -51 -145 -51 q-87 0 -144 51q-59 53 -59 135z" />
<glyph unicode="&#xf8;" horiz-adv-x="1656" d="M94 721q0 432 332 635q303 184 651 71l84 138h348v-39l-159 -262q213 -207 213 -543q0 -422 -322 -627q-293 -186 -637 -84l-86 -141h-350v41l156 254q-229 205 -230 557zM473 721q0 -182 113 -291q100 -96 245 -96q143 0 244 96q113 109 113 291q0 184 -113 291 q-100 98 -244 98q-145 0 -245 -98q-113 -106 -113 -291z" />
<glyph unicode="&#xf9;" horiz-adv-x="1478" d="M168 477v957h350v-951q0 -82 70 -131q61 -43 149 -43q89 0 150 43q68 49 67 131v951h355v-957q0 -227 -174 -366q-164 -131 -398 -131q-231 0 -395 131q-174 139 -174 366zM418 1774v30l311 105l156 -342v-33h-256z" />
<glyph unicode="&#xfa;" horiz-adv-x="1478" d="M168 477v957h350v-951q0 -82 70 -131q61 -43 149 -43q89 0 150 43q68 49 67 131v951h355v-957q0 -227 -174 -366q-164 -131 -398 -131q-231 0 -395 131q-174 139 -174 366zM594 1532v33l156 342l311 -105v-30l-211 -240h-256z" />
<glyph unicode="&#xfb;" horiz-adv-x="1478" d="M168 477v957h350v-951q0 -82 70 -131q61 -43 149 -43q89 0 150 43q68 49 67 131v951h355v-957q0 -227 -174 -366q-164 -131 -398 -131q-231 0 -395 131q-174 139 -174 366zM334 1528v33l217 292h373l219 -292v-33h-273l-133 155l-125 -155h-278z" />
<glyph unicode="&#xfc;" horiz-adv-x="1478" d="M168 477v957h350v-951q0 -82 70 -131q61 -43 149 -43q89 0 150 43q68 49 67 131v951h355v-957q0 -227 -174 -366q-164 -131 -398 -131q-231 0 -395 131q-174 139 -174 366zM264 1712q0 86 60 137q57 51 143 52q88 0 145 -52q59 -51 60 -137q0 -82 -60 -135 q-59 -51 -145 -51t-143 51q-59 53 -60 135zM807 1712q0 86 59 137q57 51 144 52q88 0 145 -52q57 -51 57 -137q0 -84 -57 -135t-145 -51q-87 0 -144 51q-59 53 -59 135z" />
<glyph unicode="&#xfd;" horiz-adv-x="1361" d="M18 1378v56h396l260 -478h14l260 478h398v-56l-484 -776v-602h-362v602zM508 1528v33l156 342l311 -105v-31l-211 -239h-256z" />
<glyph unicode="&#xfe;" horiz-adv-x="1421" d="M182 0v1434h367v-183h264q244 0 385 -168q129 -150 129 -366q0 -217 -129 -367q-141 -166 -385 -166h-264v-184h-367zM549 514h262q72 0 115 64q39 57 41 141q0 82 -37 139q-43 66 -119 66h-262v-410z" />
<glyph unicode="&#xff;" horiz-adv-x="1361" d="M18 1378v56h396l260 -478h14l260 478h398v-56l-484 -776v-602h-362v602zM207 1716q0 86 59 137q57 51 144 52q88 0 145 -52q59 -51 59 -137q0 -82 -59 -135q-59 -51 -145 -51q-87 0 -144 51q-59 53 -59 135zM750 1716q0 86 59 137q57 51 143 52q88 0 146 -52 q57 -51 57 -137q0 -84 -57 -135t-146 -51q-86 0 -143 51q-59 53 -59 135z" />
<glyph unicode="&#x152;" horiz-adv-x="1961" d="M94 717q0 414 297 614q272 184 629 103h790v-326h-510v-207h467v-326h-467v-249h529v-326h-817q-362 -82 -629 102q-289 201 -289 615zM471 717q0 -226 170 -332q156 -96 328 -39v737q-172 57 -328 -39q-170 -106 -170 -327z" />
<glyph unicode="&#x153;" horiz-adv-x="1961" d="M94 717q0 414 297 614q272 184 629 103h790v-326h-510v-207h467v-326h-467v-249h529v-326h-817q-362 -82 -629 102q-289 201 -289 615zM471 717q0 -226 170 -332q156 -96 328 -39v737q-172 57 -328 -39q-170 -106 -170 -327z" />
<glyph unicode="&#x178;" horiz-adv-x="1361" d="M18 1378v56h396l260 -478h14l260 478h398v-56l-484 -776v-602h-362v602zM207 1716q0 86 59 137q57 51 144 52q88 0 145 -52q59 -51 59 -137q0 -82 -59 -135q-59 -51 -145 -51q-87 0 -144 51q-59 53 -59 135zM750 1716q0 86 59 137q57 51 143 52q88 0 146 -52 q57 -51 57 -137q0 -84 -57 -135t-146 -51q-86 0 -143 51q-59 53 -59 135z" />
<glyph unicode="&#x2c6;" horiz-adv-x="985" d="M84 1198v33l217 293h373l219 -293v-33h-272l-134 156l-125 -156h-278z" />
<glyph unicode="&#x2dc;" horiz-adv-x="980" d="M78 1237q55 166 164 223q111 59 264 -2q84 -33 112 -35q66 -6 87 60l184 -80q-33 -152 -146 -219q-115 -70 -251 -15q-109 43 -125 48q-86 16 -113 -54q-76 29 -176 74z" />
<glyph unicode="&#x2000;" horiz-adv-x="972" />
<glyph unicode="&#x2001;" horiz-adv-x="1944" />
<glyph unicode="&#x2002;" horiz-adv-x="972" />
<glyph unicode="&#x2003;" horiz-adv-x="1944" />
<glyph unicode="&#x2004;" horiz-adv-x="648" />
<glyph unicode="&#x2005;" horiz-adv-x="486" />
<glyph unicode="&#x2006;" horiz-adv-x="324" />
<glyph unicode="&#x2007;" horiz-adv-x="324" />
<glyph unicode="&#x2008;" horiz-adv-x="243" />
<glyph unicode="&#x2009;" horiz-adv-x="388" />
<glyph unicode="&#x200a;" horiz-adv-x="108" />
<glyph unicode="&#x2026;" horiz-adv-x="1636" d="M68 174q0 84 59 139q57 51 145 52q84 0 142 -52q59 -55 59 -139q0 -82 -59 -135q-57 -51 -142 -51q-88 0 -145 51q-59 51 -59 135zM594 174q0 84 59 139q57 51 146 52q84 0 141 -52q59 -55 59 -139q0 -82 -59 -135q-57 -51 -141 -51q-89 0 -146 51q-59 51 -59 135z M1122 174q0 84 60 139q57 51 145 52q84 0 141 -52q59 -55 60 -139q0 -82 -60 -135q-57 -51 -141 -51q-88 0 -145 51q-59 51 -60 135z" />
<glyph unicode="&#x202f;" horiz-adv-x="388" />
<glyph unicode="&#x205f;" horiz-adv-x="486" />
<glyph unicode="&#x25fc;" horiz-adv-x="1433" d="M0 0v1434h1434v-1434h-1434z" />
</font>
</defs>
</svg>
